<svg xmlns="http://www.w3.org/2000/svg" viewBox="548 135 509 509">
  <defs>
    <style>
      .cls-1 {
        fill: #fff;
        stroke-width: 42px;
      }

      .cls-1, .cls-2 {
        stroke: #0163c5;
      }

      .cls-2 {
        fill: #0163c5;
        stroke-width: 3px;
      }

      .cls-3 {
        stroke: none;
      }

      .cls-4 {
        fill: none;
      }
    </style>
  </defs>
  <g id="fanicon" transform="translate(-165 -118)">
    <g id="Ellipse_1" data-name="Ellipse 1" class="cls-1" transform="translate(713 253)">
      <circle class="cls-3" cx="254.5" cy="254.5" r="254.5"/>
      <circle class="cls-4" cx="254.5" cy="254.5" r="233.5"/>
    </g>
    <path id="fan" class="cls-2" d="M322.63,197.04,321,192c-30.931-10.619-87.313-20.39-110.214-27.594a48.8,48.8,0,0,0-13.972-24.178l13.987-48.8,17.328-60.453-3.541-3.932C209.408,10.179,187.052.5,163.263.5s-46.137,9.679-61.318,26.55L98.4,30.982c1.9,34.227,23.253,69.759,31.31,109.253a48.79,48.79,0,0,0-13.931,24.036c-20.613,3.043-31.709,6.622-110.292,27.3L3.843,196.61c-7.06,21.57-4.306,45.768,7.553,66.4s31.385,35.178,53.576,39.931l5.18,1.108c65.1-66.216,38.975-38.656,79.086-81.582a48.862,48.862,0,0,0,27.931.037l78.865,81.793,5.18-1.094c22.2-4.689,41.774-19.2,53.685-39.785s14.729-44.777,7.735-66.371ZM133.546,175.686a29.719,29.719,0,1,1,44.2,25.947,29.352,29.352,0,0,1-14.49,3.764,29.755,29.755,0,0,1-29.715-29.711Zm0,0" transform="translate(1152.364 352.312) rotate(93)"/>
  </g>
</svg>
