<svg id="fansearch" xmlns="http://www.w3.org/2000/svg" viewBox="548 135 607.925 509">
  <defs>
    <style>
      .cls-1, .cls-3 {
        fill: #fff;
      }

      .cls-1, .cls-2 {
        stroke: #aa0000;
      }

      .cls-1 {
        stroke-width: 42px;
      }

      .cls-2 {
        fill: #aa0000;
        stroke-width: 3px;
      }

      .cls-4, .cls-5, .cls-7 {
        fill: none;
      }

      .cls-4, .cls-5 {
        stroke: #aa0000;
      }

      .cls-4 {
        stroke-width: 35px;
      }

      .cls-5 {
        stroke-width: 19px;
      }

      .cls-6, .cls-8 {
        stroke: none;
      }

      .cls-8 {
        fill: #aa0000;
      }
    </style>
  </defs>
  <g id="Ellipse_1" data-name="Ellipse 1" class="cls-1" transform="translate(548 135)">
    <circle class="cls-6" cx="254.5" cy="254.5" r="254.5"/>
    <circle class="cls-7" cx="254.5" cy="254.5" r="233.5"/>
  </g>
  <path id="fan" class="cls-2" d="M322.63,197.04,321,192c-30.931-10.619-87.313-20.39-110.214-27.594a48.8,48.8,0,0,0-13.972-24.178l13.987-48.8,17.328-60.453-3.541-3.932C209.408,10.179,187.052.5,163.263.5s-46.137,9.679-61.318,26.55L98.4,30.982c1.9,34.227,23.253,69.759,31.31,109.253a48.79,48.79,0,0,0-13.931,24.036c-20.613,3.043-31.709,6.622-110.292,27.3L3.843,196.61c-7.06,21.57-4.306,45.768,7.553,66.4s31.385,35.178,53.576,39.931l5.18,1.108c65.1-66.216,38.975-38.656,79.086-81.582a48.862,48.862,0,0,0,27.931.037l78.865,81.793,5.18-1.094c22.2-4.689,41.774-19.2,53.685-39.785s14.729-44.777,7.735-66.371ZM133.546,175.686a29.719,29.719,0,1,1,44.2,25.947,29.352,29.352,0,0,1-14.49,3.764,29.755,29.755,0,0,1-29.715-29.711Zm0,0" transform="translate(987.364 234.312) rotate(93)"/>
  <g id="Ellipse_1-2" data-name="Ellipse 1" class="cls-3" transform="translate(834.317 152.702) rotate(12.007)">
    <path class="cls-6" d="M 157.3559112548828 294.7118530273438 C 81.61761474609375 294.7118530273438 20.00002861022949 233.0942077636719 20.00002861022949 157.3559112548828 C 20.00002861022949 81.61761474609375 81.61761474609375 20.00002861022949 157.3559112548828 20.00002861022949 C 233.0942077636719 20.00002861022949 294.7118530273438 81.61761474609375 294.7118530273438 157.3559112548828 C 294.7118530273438 233.0942077636719 233.0942077636719 294.7118530273438 157.3559112548828 294.7118530273438 Z"/>
    <path class="cls-8" d="M 157.3559112548828 274.7118225097656 C 222.0662231445313 274.7118225097656 274.7118225097656 222.0662231445313 274.7118225097656 157.3559112548828 C 274.7118225097656 92.64560699462891 222.0662231445313 39.9999885559082 157.3559112548828 39.9999885559082 C 92.64560699462891 39.9999885559082 39.9999885559082 92.64560699462891 39.9999885559082 157.3559112548828 C 39.9999885559082 222.0662231445313 92.64560699462891 274.7118225097656 157.3559112548828 274.7118225097656 M 157.3559112548828 314.7118225097656 C 70.45068359375 314.7118225097656 -1.182204050564906e-05 244.2611389160156 -1.182204050564906e-05 157.3559112548828 C -1.182204050564906e-05 70.45068359375 70.45068359375 -1.182204050564906e-05 157.3559112548828 -1.182204050564906e-05 C 244.2611389160156 -1.182204050564906e-05 314.7118225097656 70.45068359375 314.7118225097656 157.3559112548828 C 314.7118225097656 244.2611389160156 244.2611389160156 314.7118225097656 157.3559112548828 314.7118225097656 Z"/>
  </g>
  <path id="Line_1" data-name="Line 1" class="cls-4" d="M0,0,104.542,143.419" transform="translate(1037.241 463.769)"/>
  <path id="Path_2" data-name="Path 2" class="cls-5" d="M1185.93,435.159s23.97,55.689,0,98.012" transform="translate(-181.503 -154.991)"/>
</svg>
